<?xml version="1.0" standalone="no"?>
<!DOCTYPE svg PUBLIC "-//W3C//DTD SVG 20010904//EN"
 "http://www.w3.org/TR/2001/REC-SVG-20010904/DTD/svg10.dtd">
<svg version="1.0" xmlns="http://www.w3.org/2000/svg"
 width="70.000000pt" height="70.000000pt" viewBox="0 0 70.000000 70.000000"
 preserveAspectRatio="xMidYMid meet">
<metadata>
Created by potrace 1.14, written by Peter Selinger 2001-2017
</metadata>
<g transform="translate(0.000000,70.000000) scale(0.100000,-0.100000)"
fill="#000000" stroke="none">
<path d="M434 574 c-13 -19 -15 -32 -8 -52 11 -32 27 -32 36 0 6 23 6 23 7 1
1 -27 20 -40 32 -22 13 20 11 73 -3 87 -20 20 -46 14 -64 -14z"/>
<path d="M329 498 c-10 -19 -8 -25 16 -45 16 -15 37 -23 52 -21 31 4 32 20 2
36 l-24 14 28 -6 c19 -5 27 -2 27 7 0 40 -81 53 -101 15z"/>
<path d="M516 504 c-21 -21 -13 -32 21 -28 l28 4 -28 -11 c-32 -13 -31 -32 2
-37 32 -5 71 24 71 52 0 37 -64 51 -94 20z"/>
<path d="M441 472 c-14 -26 5 -55 32 -48 16 3 27 -3 41 -22 20 -27 20 -27 0
-9 -29 24 -47 22 -38 -5 11 -37 35 -58 66 -58 55 0 49 80 -7 90 -19 3 -31 12
-33 25 -9 44 -43 60 -61 27z"/>
<path d="M405 423 c-11 -3 -26 -10 -32 -15 -19 -15 -16 -67 3 -75 27 -10 68
10 78 39 13 36 1 46 -24 23 -24 -22 -27 -9 -3 17 16 18 14 20 -22 11z"/>
<path d="M216 329 c-24 -19 -25 -23 -12 -38 8 -9 19 -28 25 -44 6 -15 15 -27
19 -27 15 0 62 41 62 53 0 7 6 24 14 39 18 33 13 38 -39 38 -28 0 -52 -7 -69
-21z"/>
<path d="M95 283 c11 -45 32 -71 70 -84 33 -12 35 -15 35 -60 0 -26 5 -51 10
-54 6 -4 10 22 10 70 0 112 -28 155 -100 155 -30 0 -32 -2 -25 -27z"/>
</g>
</svg>
